<svg id="Слой_1" data-name="Слой 1" xmlns="http://www.w3.org/2000/svg" viewBox="0 0 466.33 493.69"><path d="M86.23,278l-8.41,1.35L64.06,196.54l9.67-2.73a9.76,9.76,0,0,0,.94,5c12.55,22.08,24.52,44.49,37,66.62,1.14,2.11,2.69,3.47,1.69,6.14Z" transform="translate(-64.06 -120.25)" style="fill:#b35ca2"/><path d="M286.5,121.86c5.43-.55,11-2.19,16.25-1.4,8.51,1.28,16.77,4.14,25.14,6.34,15.74,30.36,32.89,60,49.15,90,1.73,3.19,4.14,5.72,6.4,8.44,1.29,6.12-.55,11.87-2.17,17.6-.88,3.15-3.57,5.12-6.63,4.32-13.25-3.48-26.82-5.62-39.94-9.62a4.64,4.64,0,0,1-1.54-1.24C316.08,202.71,273,129.45,275.73,124.2l0,0C276.88,123.27,285.93,122.14,286.5,121.86Z" transform="translate(-64.06 -120.25)" style="fill:#dd7167"/><path d="M371.83,595.8c-15.77,4.17-31.52,8.45-47.34,12.45-8.32,2.1-16.75,3.75-25.16,5.48a10.88,10.88,0,0,1-4.58-.08q-19-4.62-37.89-9.43c-11.56-2.94-45.67-12.25-46-14.21-1.67-10.16,3.58-19.28,2.21-29.49a5.15,5.15,0,0,1,1-3.74c4.2-1.91,8.36-.45,12.3.62,21.4,5.79,43.11,10.28,64.47,16.21a19.5,19.5,0,0,0,10.42-.1C323.78,567.78,346.32,562,369,556.8c3.14-.72,6.42-2.13,9.69-.21a3.35,3.35,0,0,1,.79,2.44c-2,11-3.05,22.12-4.59,33.18C374.65,593.86,374.24,595.79,371.83,595.8Z" transform="translate(-64.06 -120.25)" style="fill:#914ad3"/><path d="M275.73,124.2c16.62,38.26,40.56,72.72,57.44,110.82-1.49,1.46-3.32,1.15-5,.66-8.25-2.43-17-2.53-25.14-5.37-3.95-1.37-7.81-.74-11.73-.2-6.12.83-8.62-3.52-11-7.88-10.39-19.33-21.21-38.42-31.71-57.69-3.61-6.62-7.31-13.19-10.93-19.79-1.65-3-4-6.06-2-9.89l0,0c.82-.59,1.89-.46,2.72-1Z" transform="translate(-64.06 -120.25)" style="fill:#d76e6f"/><path d="M519.68,255.22l-4.07,24.43-7.39-1.44c-5.86,2-11.26-.82-16.79-1.74a52.78,52.78,0,0,1-15.73-4.85c-6.88-6.74-9-16.41-14.38-24a112.49,112.49,0,0,1-14-25.32c-2-5.17-5.7-9.14-8.67-13.65-1.24-8.18-1.74-8.84,3.09-16,1.22-3.84,3-14,4.22-17.69,11.35,3.07,22.31,5,33,7.89-.78,2.52-.1,4.7,1.16,7q16.56,29.7,32.8,59.57C514.47,252.23,516.17,254.75,519.68,255.22Z" transform="translate(-64.06 -120.25)" style="fill:#eb7852"/><path d="M235.68,134.86c5.56,11.06,10.88,22.24,16.73,33.14,10.89,20.23,22.29,39.88,33.28,60.11l4.7.32c.21,2.9-2.28,3.26-4,3.44-11.09,1.21-21.52,5.12-32.3,7.54a9.8,9.8,0,0,1-2.65.07c-4.6-.26-6.93-3.42-8.93-7q-17.29-31-34.34-62.19c-2.95-5.43-6.5-10.56-8.3-16.57L198,143.58Z" transform="translate(-64.06 -120.25)" style="fill:#d06a78"/><path d="M214.57,556.63c2.55,12.86,8.25,44.62,8.25,44.62s-17.23-3.68-24.41-5.82c-6.11-10-11.11-20.68-16.92-30.88C170.1,543.76,158,523.26,147.34,502.1c-1.29-3.66-.79-6.59,3.45-7.86,5.11-.25,37.36,8.61,48.74,11.26,4.2,1,7.92,2.46,8.35,7.17C209,525.07,216.59,554.24,214.57,556.63Z" transform="translate(-64.06 -120.25)" style="fill:#ac57ad"/><path d="M153.93,262s-39.6,10.33-40.58,9.55a2.43,2.43,0,0,1-.54-.69q-20.24-36.57-40.54-73.07s0,0,0,0a2.63,2.63,0,0,1,1.49-4l35.54-9.27a2.58,2.58,0,0,1,2,.28c3,1.84,4.13,5.31,5.67,8.18,11.53,21.42,23.6,42.55,35.2,63.91A39.06,39.06,0,0,1,153.93,262Z" transform="translate(-64.06 -120.25)" style="fill:#b95e99"/><path d="M485.43,415.48q-5.85,35.2-11.69,70.42c-1.05,1.66-2.84,2-4.53,2.52-11.93,3.38-23.8,7.05-36,9.2-2,.35-4,.72-5.71-.71-2.72-7.42.92-14.39,2.1-21.35,3-17.87,5.82-35.81,9.63-53.55.66-3,.8-6.24,4.15-7.82,13.09-2,26.22-.55,39.33-.31A3.79,3.79,0,0,1,485.43,415.48Z" transform="translate(-64.06 -120.25)" style="fill:#914ad3"/><path d="M464.22,569.2l1.37,11.16s-32,6.19-31,5.92c-4.66,1.36-5.63-2.68-7-5.28-12-22.07-24.2-44-36.38-66-1.29-2.59-2.71-5.21-1-8.19,11.1-6.09,23.11-8.84,35.64-9.67,6,6.64,9.22,15,13.55,22.63C448.89,536.58,454.35,552.65,464.22,569.2Z" transform="translate(-64.06 -120.25)" style="fill:#d06a79"/><path d="M165.19,498.18l-14.79-2.72c-6.16.84-12-.38-17.72-2.58-3.46-1.7-8-.72-10.71-4.3-4.22-23.49-8-47.05-11.69-70.63-3.45-7.8,10.58-5.73,14.73-5.85,8.76.25,17.59-1.33,26.26,1.07,2.76,2.05,3.15,5.18,3.58,8.24,3.17,22.52,7.11,44.92,11.21,67.29C166.65,491.9,167.73,495.23,165.19,498.18Z" transform="translate(-64.06 -120.25)" style="fill:#914ad3"/><path d="M382.67,224.56c-1.8-1.32-4.3-2.24-5.29-4-15.85-28.24-48.72-90.8-49.49-93.75.89.15,70.69,20,70.69,20S382.87,224.37,382.67,224.56Z" transform="translate(-64.06 -120.25)" style="fill:#e4755c"/><path d="M475.92,269.89l32.3,8.32c-3,19-9.4,65-9.66,68.91-6.23,4.19-13.21,1.46-19.83,2.14-8.27-.31-16.62,1.23-24.8-1.13-2.87-3.35-1.59-7.31-.83-10.72,4.68-20.94,7.26-42.24,11.28-63.29.37-1.94.51-4,1.72-5.65C469.88,265.45,472.73,268.83,475.92,269.89Z" transform="translate(-64.06 -120.25)" style="fill:#914ad3"/><path d="M127.59,268.57l12.33,78.53-42.68.22L86.23,278S124.94,269,127.59,268.57Z" transform="translate(-64.06 -120.25)" style="fill:#914ad3"/><path d="M453.66,346.9l25,.44c6.21,5.4,8.22,13.42,12.43,20.07,7.19,11.35,11.76,24.28,20.68,34.61l-2.19,13.39-41.35-.67c-5.33-5.92-8.22-12.92-11.85-19.44C449,382.15,441.68,369,434.6,355.74c-1.56-2.93-4.16-6.16-.45-9.51C440.7,345,447.25,344,453.66,346.9Z" transform="translate(-64.06 -120.25)" style="fill:#e2735f"/><path d="M390.55,507.72c10.82,24.44,37.54,70.75,37.54,70.75l5.08,8.08s-59.09,15.37-60.74,15.28c-.21-2.19,3.91-32.16,5.84-45.29a5.65,5.65,0,0,1-1.15-5c2.38-13.3,3.5-26.84,7.38-39.86C385.35,508.83,385.84,504.89,390.55,507.72Z" transform="translate(-64.06 -120.25)" style="fill:#ca6782"/><path d="M433.24,347.35c4,8.07,7.89,16.24,12.16,24.19,7.53,14,15.32,27.95,23.32,42.51h41.72c-8.33.54-25,1.43-25,1.43l-43.25,0c-2.51,1.74-5.38,1.86-8.29,1.87-6.87,0-13.74,0-20.61,0-11.8-.09-13.44-2.16-11.48-14.05A108.2,108.2,0,0,1,404.61,391c3.06-10.74,3.58-21.85,5.46-32.75C412.35,345,420.72,341.16,433.24,347.35Z" transform="translate(-64.06 -120.25)" style="fill:#db7069"/><path d="M465.59,580.36s-8.48-25.32-13.08-33.3c-8.29-14.41-16.07-29.13-24-43.75a43.68,43.68,0,0,1-2.09-5.57c.13-.88.46-1.47,1.49-1,12.71-3.1,53.18-12.31,53.18-12.31Z" transform="translate(-64.06 -120.25)" style="fill:#d56d71"/><path d="M153.93,262c-15.09-25-29.82-52.06-43.7-77.73v.05c.45-.33,25.9-6.76,38-9.64l16.2,85.24Z" transform="translate(-64.06 -120.25)" style="fill:#c1638e"/><path d="M125,414.05c-3.66,0-7.37-.34-11,.2-1.42.22-2.53,2.41-3.79,3.7l-1.93-3.85H82.68c-3.62-22.05-7.57-43.49-10.64-65.42,5.55-1.49,11.21-.36,16.81-.72,2.64.11,3.69,2.1,4.76,4.07,10.06,18.48,20.11,37,30.46,55.28C125.21,409.33,126.87,411.51,125,414.05Z" transform="translate(-64.06 -120.25)" style="fill:#a956b1"/><path d="M519.68,255.22,517,258.9C512.85,252,509.17,246,505.79,240c-9.6-17.21-19.08-34.48-28.58-51.75-1.28-2.33-2.26-4.69,1.76-5.33l51.41,12.49C527.15,213.25,519.68,255.22,519.68,255.22Z" transform="translate(-64.06 -120.25)" style="fill:#f17b49"/><path d="M133,491.48l17.37,4c-3.87,1.89-2.54,4.6-1.09,7.25q13.06,24,26.17,47.88,10.85,19.86,21.57,39.78c.8,1.5.92,3.36,1.36,5.06-.92,0-21.1-5.1-21.35-5.42-5.34-6.1-8.21-13.69-12.09-20.64q-18.53-33.2-36.74-66.58c-1.76-3.2-4.27-6.48-2-10.54A5.86,5.86,0,0,1,133,491.48Z" transform="translate(-64.06 -120.25)" style="fill:#a755b4"/><path d="M199.89,153.71c5.08,8.48,10.37,16.83,15.19,25.44,9.94,17.73,19.54,35.64,29.52,53.34,1.26,2.23,4,3.62,6.05,5.4h0s-34.44,9.47-34.43,8.5Z" transform="translate(-64.06 -120.25)" style="fill:#ca6780"/><path d="M392.71,175.68c16.59,2.9,34.45,5.94,50.78,10-1,8.08-2.81,15.9-3.82,24,.74,3.18,1,8.33-2.26,9.95-7.68.58-15.47-4.51-22.63-6.57-8.88-2.54-28.39-6.37-28.39-6.37S390.82,185.06,392.71,175.68Z" transform="translate(-64.06 -120.25)" style="fill:#914ad3"/><path d="M203.34,173.31c1.45,10.39,3.84,19.59,5.29,30L156,215.6c-1.76-10.24-3.76-19.49-5.64-29.71C167.24,181.78,186.49,177.42,203.34,173.31Z" transform="translate(-64.06 -120.25)" style="fill:#914ad3"/><path d="M133,491.48c-2.18.47-3.81,2-7.23,2.74,5,9.48,8.71,16.85,13.28,25.12,12,21.69,24.17,43.3,36.18,65,1,1.7,1.22,3.77,1.8,5.67l-20.49-4.85c1.05-2.75.25-5.16-1.14-7.59C143.69,557,132.51,536,120.91,515.3c-1.62-2.89-2.41-6.86-6.63-7.64-1.15-6.58-2.29-13.15-3.71-21.25L122,488.58Z" transform="translate(-64.06 -120.25)" style="fill:#a755b5"/><path d="M114.28,507.66l1.3-3.73c2.57,3.86,4.78,6.71,6.52,9.83q17.85,32.13,35.45,64.39c1.2,2.19,4.79,5.47-1,7-.37,0-20.81-5.18-29.95-7.15C122.94,556.71,114.39,508.52,114.28,507.66Z" transform="translate(-64.06 -120.25)" style="fill:#a353ba"/><path d="M511.73,402c-2.09-1.67-5-2.91-6.15-5.08-9.17-16.43-18-33-27-49.6l19.94-.22H521.2C518.75,361.8,511.82,400.71,511.73,402Z" transform="translate(-64.06 -120.25)" style="fill:#e77658"/><path d="M90.4,348.84,72,348.68l25.2-1.36,42.68-.22c0,.41,0,.81-.07,1.22-1.37,1.94-3.51,1.92-5.53,2.23-11.89.32-23.77.09-35.65.16A16.47,16.47,0,0,1,90.4,348.84Z" transform="translate(-64.06 -120.25)" style="fill:#b66cb6"/><path d="M275.7,124.24" transform="translate(-64.06 -120.25)" style="fill:#d76e6f"/><path d="M238.37,133.91l-2.72,1Z" transform="translate(-64.06 -120.25)" style="fill:#d06a78"/><path d="M155.67,584.78" transform="translate(-64.06 -120.25)" style="fill:#a755b5"/><path d="M110.23,184.34" transform="translate(-64.06 -120.25)" style="fill:#b95e99"/><path d="M156,215.6l52.6-12.31c3.08,13.39,4.1,28,7.59,43.1l34.43-8.5c13.34-2.77,26.32-7.15,39.74-9.46,10.82-1.87,20.05-.73,30.7,2.33,3.94,1.13,42.18,11.84,58,15.76,1.31-8.11,6.35-39.5,7.26-39.8,16.44,3.72,35.89,6.7,52.33,10.41,2.57,5.53-1.3,10.41-2.28,15.74-1.48,8-3.55,16-1.93,24.88,8.82,1.52,16.91,5.19,25.44,7.51,2.52.69,5.3,1,7,3.42-2.5,15.23-4.95,30.46-7.53,45.68-1.83,10.86-3.83,21.69-5.76,32.54l-20.42.45H414.63c-4.12,22.33-8.21,44.42-12.6,68.18h40.15c-4.75,27.07-15.26,81.87-15.76,82.21l-35.87,10h-4l-8.3,48.82q-39.31,9.65-78.65,19.24a12.78,12.78,0,0,1-5.8.4c-20.85-5.08-41.66-10.33-62.48-15.52-5.58-1.39-11.18-2.69-16.77-4-3.08-15.51-7.76-30.75-8.68-46.6-.73-.65-1.3-1.57-2-1.75-10.64-2.55-21.31-4.95-31.94-7.53a54.16,54.16,0,0,1-6.71-2.57c-4.52-27.93-8.83-55.89-13.17-83.85,5.06-4,11-1.78,16.49-2.21s11.43.88,17.83-1.22c-2.51-20-4.53-39.85-10.26-59.39A163.56,163.56,0,0,0,150,349.17c-3.44,0-7.16.84-10.09-2v-.07c0,.07-12.37-79.09-12.33-78.53,0,0,32.09-8.37,36.87-8.63C161.86,244.77,158.47,229.8,156,215.6Z" transform="translate(-64.06 -120.25)" style="fill:#261e51"/><path d="M429.24,258.9c-.3.64,9.64-46.84,10.43-49.19,3.06,3.75,6.75,7.14,9.06,11.3,8.57,15.36,16.66,31,25,46.48a13.74,13.74,0,0,0,2.2,2.4C472.93,269.49,429.24,258.9,429.24,258.9Z" transform="translate(-64.06 -120.25)" style="fill:#e67658"/><path d="M169.05,414.12l-17,.21-27-.28Q107.79,381.4,90.4,348.84l45.3-.21c6.59,8.37,10.57,18.28,16,27.35,5.53,9.28,10.41,18.94,15.62,28.42C168.91,407.3,171.69,410.32,169.05,414.12Z" transform="translate(-64.06 -120.25)" style="fill:#b05aa6"/><path d="M386.11,209.88" transform="translate(-64.06 -120.25)" style="fill:#dd7167"/><path d="M169.05,414.12c-10.35-22.22-21.82-43.87-33.35-65.49l4.22-1.46h38.33c3.85,22.79,7.49,44.31,11.31,66.95Z" transform="translate(-64.06 -120.25)" style="fill:#b65d9e"/><path d="M270.71,316.62l15.82-1.13s6.66-.39,10.53,1.35c4,4.84,6.57,11.32,9.88,17.28q27.1,48.64,54,97.4c1.34,2.43,3.49,4.84,1.63,8l-8.05,7.9c-3.26-.78-4.14-3.72-5.55-6.15-9.12-15.6-17.08-31.86-26.55-47.27V373.13l-10.62-.64c-6.34-5.06-8.3-12.91-12.17-19.5-6.49-11.06-12.72-22.29-18-32.7C277.75,317.13,273.49,319.45,270.71,316.62Z" transform="translate(-64.06 -120.25)" style="fill:#feef92"/><path d="M362.56,439.51c-6-11.57-11.88-23.25-18.15-34.69-16-29.16-32.69-58.4-48.62-87.52l-9.26-1.81h14.68c2.53,1.05,5.31-.14,8.14.91,5.13,5.4,7.91,12.54,11.53,19.09,16.44,29.73,32.78,59.52,49.47,89.11,1,1.7,2.32,3.34,1.59,5.55l0,0a4.45,4.45,0,0,0-1.4,1.43Z" transform="translate(-64.06 -120.25)" style="fill:#fee486"/><path d="M371.94,430.15c-9.28-16.32-18.68-32.57-27.82-49-11.84-21.24-23.46-42.59-35.07-63.72l-7.84-2h14.67c2.08,1,4.43-.1,7.32,1.18,18.77,32.58,36.37,66.63,55.95,99.56-.18,2.43.56,4.93-.53,7.29Z" transform="translate(-64.06 -120.25)" style="fill:#fed77a"/><path d="M378.44,415.41c-1.55-1.39-3.61-2.49-4.57-4.21q-26.06-46.8-51.95-93.85l-6-1.86h12c2.08,1,4.43-.1,7,1,5,6.27,8.34,14.06,12.52,21.31,10.52,18.24,19.92,37.11,31,55a5.38,5.38,0,0,1,.76,2.53c0,6,0,12,0,17.93A2.7,2.7,0,0,1,378.44,415.41Z" transform="translate(-64.06 -120.25)" style="fill:#fec86e"/><path d="M293.14,372.5H267.8c-6.78-11.1-13.7-22.12-18.57-34.26,4.08-4.09,14.1-14.51,14.63-14.74a5.72,5.72,0,0,1,1.33-1.33l.14-.14c2.92-.5,3.76,1.85,4.8,3.69,7.39,13.07,14.87,26.1,21.72,39.46C293,367.39,295.06,369.66,293.14,372.5Z" transform="translate(-64.06 -120.25)" style="fill:#fefeac"/><path d="M293.14,372.5,265.33,322c1.79-1.8,3.58-3.61,5.38-5.41h10.85l30.23,55.87Z" transform="translate(-64.06 -120.25)" style="fill:#fef99e"/><path d="M378.47,394c-2.41-3.09-5.28-5.93-7.16-9.32-12.48-22.39-24.75-44.9-37-67.22l-6.42-2h13.35c2.08,1,4.44-.1,7.33,1.18,4.76,7.68,9.22,16.35,13.9,24.88,5.55,10.09,11.63,19.89,16.72,30.24C378.74,379.2,380.09,386.65,378.47,394Z" transform="translate(-64.06 -120.25)" style="fill:#febd66"/><path d="M322.41,394c12.25,16.86,22,35.2,32.1,53.42l-10.67,10.68c-6-3.77-7.55-10.7-11-16.23-3.72-6-7.17-12.19-10.41-18.49Z" transform="translate(-64.06 -120.25)" style="fill:#fef99d"/><path d="M378.46,370c-12.09-16.54-21.41-34.59-31.13-52.62l-6.09-1.88h14.67c2.52,1,5.28-.13,7.81.85C376.78,332,379.77,328.1,378.46,370Z" transform="translate(-64.06 -120.25)" style="fill:#fead59"/><path d="M322.44,423.37c9,10.35,14.68,22.87,21.4,34.72l-21.4,20.38Z" transform="translate(-64.06 -120.25)" style="fill:#fefdab"/><path d="M249.23,338.24,267.8,372.5h-16c-4.17-8.09-10.47-15.11-12.26-24.41Z" transform="translate(-64.06 -120.25)" style="fill:#f6f6b6"/><path d="M378.46,370V344.37l-15.31-27.06-7.24-1.83h23.57V414l-.85,0-.16-20Z" transform="translate(-64.06 -120.25)" style="fill:#fa9d4f"/><path d="M239.53,348.08q6.12,12.21,12.26,24.41H237.11c-3.76-3.86-5.62-8.94-8.48-13.37Q234.08,353.61,239.53,348.08Z" transform="translate(-64.06 -120.25)" style="fill:#eeeabb"/><path d="M228.63,359.13q4.25,6.67,8.48,13.37H214.72C219.17,368.44,224.18,363.18,228.63,359.13Z" transform="translate(-64.06 -120.25)" style="fill:#e1d6c1"/><path d="M378.63,414a3.44,3.44,0,0,0,.85,0c-.28,3.19-.57,6.37-.86,9.56l-.18-8.11Z" transform="translate(-64.06 -120.25)" style="fill:#febd66"/><path d="M263.86,323.5" transform="translate(-64.06 -120.25)" style="fill:#fef99e"/><path d="M370.58,431.54l1.4-1.43Z" transform="translate(-64.06 -120.25)" style="fill:#fed77a"/><path d="M265.19,322.17" transform="translate(-64.06 -120.25)" style="fill:#fef99e"/></svg>