<?xml version="1.0" encoding="utf-8"?>
<!-- Generator: Adobe Illustrator 25.2.3, SVG Export Plug-In . SVG Version: 6.00 Build 0)  -->
<svg version="1.1" id="Слой_1" xmlns="http://www.w3.org/2000/svg" xmlns:xlink="http://www.w3.org/1999/xlink" x="0px" y="0px"
	 viewBox="0 0 595.28 841.89" style="enable-background:new 0 0 595.28 841.89;" xml:space="preserve">
<style type="text/css">
	.st0{fill:#FEFEFE;}
	.st1{fill:#B35CA2;}
	.st2{fill:#DEB8D6;}
	.st3{fill:#DD7167;}
	.st4{fill:#914AD3;}
	.st5{fill:#D76E6F;}
	.st6{fill:#EB7852;}
	.st7{fill:#D06A78;}
	.st8{fill:#AC57AD;}
	.st9{fill:#B95E99;}
	.st10{fill:#D06A79;}
	.st11{fill:#E4755C;}
	.st12{fill:#E2735F;}
	.st13{fill:#CA6782;}
	.st14{fill:#DB7069;}
	.st15{fill:#D56D71;}
	.st16{fill:#C1638E;}
	.st17{fill:#A956B1;}
	.st18{fill:#F17B49;}
	.st19{fill:#A755B4;}
	.st20{fill:#CA6780;}
	.st21{fill:#A755B5;}
	.st22{fill:#A353BA;}
	.st23{fill:#E77658;}
	.st24{fill:#B66CB6;}
	.st25{fill:#261E51;}
	.st26{fill:#E67658;}
	.st27{fill:#B05AA6;}
	.st28{fill:#B65D9E;}
	.st29{fill:#FEEF92;}
	.st30{fill:#FEE486;}
	.st31{fill:#FED77A;}
	.st32{fill:#FEC86E;}
	.st33{fill:#FEFEAC;}
	.st34{fill:#FEF99E;}
	.st35{fill:#FEBD66;}
	.st36{fill:#FEF99D;}
	.st37{fill:#FEAD59;}
	.st38{fill:#FEFDAB;}
	.st39{fill:#F6F6B6;}
	.st40{fill:#FA9D4F;}
	.st41{fill:#EEEABB;}
	.st42{fill:#E1D6C1;}
</style>
<g>
	<path class="st0" d="M64.99,195.07c0-39.6,0-79.19,0-118.81c155.15,0,310.31,0,465.55,0c0,189.45,0,378.91,0,568.57
		c-154.95,0-309.99,0-465.55,0c0-145.79,0-291.76,0-437.74c0.74-0.43,1.4-0.34,1.99,0.27c3.35,5.31,3.09,11.46,3.69,17.31
		c1.63,15.84,6.92,31.09,7.36,47.11c0.04,1.53,0.81,2.98,1.99,4.09c1.99,1.66,4.82,0.57,6.87,2.08c2.55,3.1,3.03,6.98,3.37,10.66
		c1.5,16.41,4.92,32.49,7.92,48.65c0.65,3.48,1.39,7.05-0.85,10.33c-4.65,2.76-9.78,1.03-14.67,1.55c-2.71,0.29-5.73-0.95-7.94,1.65
		c-0.16,0.43-0.46,0.86-0.4,1.26c3.01,19.66,5.11,39.48,10.64,58.74c5.81,2.38,11.63,1.04,17.28,1.3c4.31,0.2,7.94,1.02,9.39,5.71
		c2.42,7.16,3.51,14.66,4.14,22.08c1.18,13.91,4.86,27.34,6.96,41.06c0.36,2.38,1.3,4.71,0.39,7.15c-2.2,3-6.02,0.01-8.89,2.73
		c-2.02,5.19,0.36,10.63,1.19,16.14c0.28,0.98,0.45,1.98,0.59,3c0.1,1.73,0.61,3.38,1.02,5.06c4.64,20,5.89,40.69,11.93,60.28
		c7.1,5.05,15.81,3.38,23.05,6.71c1.28,0.43,2.52,0.98,3.81,1.36c0.63,0.16,1.25,0.37,1.87,0.58c5.99,2.14,12.58,1.87,18.45,4.5
		c0.57,0.15,1.12,0.36,1.66,0.59c1.02,0.43,2.04,0.85,3.13,1.09c0.78,0.14,1.56,0.32,2.32,0.56c0.98,0.34,1.91,0.82,2.86,1.25
		c0.48,0.18,0.96,0.39,1.44,0.58c1.01,0.32,2.06,0.46,3.1,0.63c0.55,0.09,1.09,0.23,1.62,0.39c1.39,0.42,2.81,0.54,4.25,0.59
		c0.93,0.03,1.85,0.15,2.76,0.35c5.95,1.47,11.68,3.89,17.13,4.46c3.28-0.69,3.8-4,6.48-4.34c9.84,1.56,19.62,3.67,29.11,6.46
		c13.18,3.87,26.79,5.84,39.85,10.07c3.72,1.21,7.46,1.09,11.12-0.03c13.31-4.09,27.03-6.51,40.46-10.14
		c9.27-2.5,18.62-5.38,28.4-5.76c1.43,1.11,1.57,3.16,3.9,4.87c19.29-4.06,38.57-11.06,58.59-14.99c10.1-2.85,20.22-5.64,29.31-7.55
		c2.53-2.55,2.4-4.6,2.6-6.56c0.07-0.99,0.24-1.96,0.5-2.91c0.48-1.54,0.82-3.1,0.89-4.72c0.08-1.32,0.27-2.62,0.59-3.91
		c0.49-1.63,0.77-3.31,1.08-4.98c4.34-21.57,6.47-43.48,11.1-64.28c-2.63-2.69-5.57-2.01-7.36-3.85
		c-1.53-6.85,1.25-13.27,2.67-19.62c3.31-14.78,3.36-30.04,7.17-44.7c0.61-2.34,0.49-4.9,2.11-6.94c3.76-2.44,7.99-1.14,12.02-1.5
		c3.61-0.33,7.37,0.84,10.81-1.04c3.13-2.71,2.15-6.45,2.44-9.86c0.03-1.28,0.18-2.54,0.49-3.77c0.52-1.77,1.02-3.54,1.35-5.36
		c0.11-0.62,0.28-1.23,0.44-1.83c0.46-1.59,0.39-3.24,0.56-4.87c2.66-11.8,4.22-23.71,4.65-35.73c-6.41-3.99-13.71,0.27-19.54-3.57
		c-3.27-6.33-0.99-12.77,0.17-18.93c2.91-15.5,5.83-30.99,7.72-46.66c0.13-1.11,0.41-2.18,0.88-3.19c1.68-2.75,5.06-0.69,7.31-2.49
		c3.9-6.35,2.08-13.89,3.88-20.7c0.07-1.4,0.28-2.77,0.61-4.13c0.52-1.68,0.86-3.39,1.18-5.12c3.91-15.98,5.16-32.3,7.3-48.73
		c-15.88-7.01-32.72-7.52-48.11-13.14c-9.97-3.33-20.65-3.71-29.77-8c-4.02,3.1-2.97,8.47-7.3,10.15
		c-6.88-0.24-13.48-2.37-20.08-3.83c-9.66-2.14-19.26-4.75-28.89-7.18c-2.26-2.92-0.7-5.89-0.2-8.91c1.09-6.7,2.95-13.37,1.57-20.98
		c-18.5-5.51-37.18-10.01-55.83-14.54c-1.61-0.33-3.15-0.93-4.77-1.23c-0.62-0.12-1.23-0.31-1.83-0.5c-0.9-0.28-1.8-0.58-2.7-0.85
		c-0.94-0.23-1.86-0.49-2.78-0.78c-7.99-2.56-16.34-3.63-24.37-6.05c-4.89-1.48-9.61-0.29-14.29,1.07
		c-0.89,0.39-1.78,0.77-2.68,1.12c-1.52,0.53-3.1,0.65-4.69,0.69c-1.54,0.03-3.06,0.2-4.52,0.74c-0.6,0.23-1.21,0.41-1.83,0.57
		c-11.11,4.27-23.11,5.04-34.32,8.88c-1.25,0.37-2.51,0.74-3.74,1.19c-0.61,0.25-1.24,0.44-1.87,0.62
		c-7.79,3.24-16.49,2.66-24.31,5.78c-3.02,1.2-6.43,1.59-8.73,3.98c-1.29,2.84,0.17,5.38,0.26,7.97
		c-0.54,6.57,2.99,12.85,1.37,19.49c-10.5,4.57-21.69,6.93-32.75,9.4c-5.93,1.33-11.81,3.47-18.01,3.58
		c-4.48-1.32-2.97-6.66-6.76-9.55c-10.16,2.96-21.23,4.67-32.04,7.61c-0.66,0.18-1.31,0.35-1.96,0.57c-0.64,0.25-1.3,0.44-1.96,0.64
		c-13.19,4.41-27.2,5.51-40.34,10.15C67.5,196.39,66.14,196.1,64.99,195.07z"/>
	<path class="st1" d="M86.23,277.98c-2.5,0.4-4.99,0.81-8.41,1.36c-4-24.59-7.86-48.34-11.73-72.1c-0.91-1.24,0.17-3.01-1.11-4.15
		c0-2.67,0-5.34,0-8.01c1.32-0.01,2.64-0.01,3.95-0.02c3.69-1.49,4.52,1.63,5.73,3.75c9.26,16.33,18.28,32.8,27.28,49.27
		c3.18,5.82,6.54,11.53,9.71,17.35c1.15,2.11,2.73,4.11,1.73,6.78C105,277.27,95.97,279.3,86.23,277.98z"/>
	<path class="st2" d="M64.99,203.08c0.37,1.38,0.74,2.77,1.11,4.15c-0.38,0.04-0.75-0.01-1.11-0.15
		C64.99,205.75,64.99,204.42,64.99,203.08z"/>
	<path class="st3" d="M279.73,123.23c1.73-0.11,3.46-0.21,5.19-0.32c0.56-0.29,1-0.78,1.58-1.05c5.43-0.55,11.02-2.19,16.25-1.4
		c8.5,1.28,16.77,4.14,25.14,6.34c15.74,30.36,32.89,59.95,49.15,90.03c1.73,3.19,4.14,5.71,6.4,8.44
		c1.29,6.11-0.55,11.87-2.17,17.6c-0.89,3.14-3.57,5.11-6.63,4.31c-13.25-3.47-26.82-5.62-39.94-9.61
		c-0.61-0.19-1.06-0.79-1.54-1.24c-17.08-33.63-36.25-66.13-54.07-99.36c-2.05-3.82-6.09-7.52-3.36-12.77l-0.04,0.04
		C276.88,123.27,278.51,124.04,279.73,123.23z"/>
	<path class="st4" d="M371.83,595.8c-15.78,4.17-31.52,8.45-47.34,12.45c-8.32,2.1-16.75,3.75-25.16,5.48
		c-1.46,0.3-3.12,0.27-4.58-0.09c-12.65-3.08-25.28-6.21-37.9-9.43c-11.56-2.94-23.08-6-34.62-9.01c-2.18-0.62-3.29-2.36-3.61-4.31
		c-1.68-10.16-4.17-20.17-5.54-30.38c-0.18-1.33,0.16-2.62,0.97-3.74c4.2-1.91,8.35-0.45,12.3,0.62
		c21.39,5.79,43.11,10.28,64.46,16.21c3.58,0.99,6.87,0.8,10.42-0.1c22.55-5.73,45.09-11.47,67.76-16.71
		c3.14-0.73,6.42-2.13,9.69-0.22c0.51,0.74,0.95,1.58,0.79,2.45c-2.03,10.99-3.05,22.12-4.59,33.17
		C374.65,593.86,374.24,595.79,371.83,595.8z"/>
	<path class="st5" d="M275.73,124.2c4.66,9.71,8.95,19.61,14.04,29.08c10.68,19.83,21.91,39.37,32.65,59.17
		c3.97,7.31,7.19,15.03,10.75,22.56c-1.49,1.46-3.32,1.15-4.97,0.66c-8.25-2.44-17-2.54-25.14-5.37c-3.95-1.38-7.81-0.74-11.73-0.2
		c-6.12,0.82-8.62-3.52-10.97-7.89c-10.4-19.33-21.22-38.42-31.72-57.69c-3.61-6.62-7.31-13.18-10.93-19.79
		c-1.65-3.01-3.98-6.06-2.04-9.89l-0.03,0.05c0.82-0.58,1.89-0.46,2.72-1C250.83,130.67,263.28,127.44,275.73,124.2z"/>
	<path class="st6" d="M519.68,255.22c-0.81,7.55-1.62,15.1-2.55,23.77c-3.56-0.31-6.24-0.55-8.92-0.78
		c-5.85,2.03-11.25-0.82-16.79-1.74c-5.41-0.9-10.77-2.31-15.72-4.85c-5.86-5.73-8.24-13.58-12.15-20.48
		c-5.92-10.42-11.84-20.86-17.4-31.49c-2.07-3.95-5.02-7.29-7.47-11c-1.24-8.18-0.84-16.07,3.99-23.2
		c1.22-3.84,2.44-7.68,3.62-11.39c11.35,3.07,22.01,5.95,32.67,8.83c-0.78,2.52-0.1,4.7,1.16,6.97
		c11.03,19.8,21.95,39.66,32.8,59.56C514.47,252.23,516.17,254.75,519.68,255.22z"/>
	<path class="st7" d="M235.68,134.86c5.56,11.06,10.88,22.25,16.73,33.14c8.18,15.24,16.77,30.25,25.17,45.37
		c2.69,4.84,5.34,9.7,8.1,14.73c1.67,0.11,3.19,0.22,4.7,0.32c0.21,2.9-2.28,3.26-3.98,3.45c-11.09,1.2-21.52,5.12-32.3,7.54
		c-0.86,0.19-1.77,0.11-2.65,0.07c-4.6-0.26-6.93-3.42-8.93-7.01c-11.53-20.68-23.01-41.39-34.33-62.19
		c-2.95-5.42-6.51-10.56-8.3-16.57c-0.56-2.96-1.12-5.91-1.92-10.13C211.03,140.56,223.36,137.71,235.68,134.86z"/>
	<path class="st8" d="M214.57,556.63c2.55,12.86,5.11,25.72,7.66,38.58c-0.63,1.76-1.27,3.52-2.38,6.61
		c-7.08-2.11-14.26-4.26-21.44-6.4c-6.11-10.04-11.11-20.67-16.92-30.88c-10.65-18.69-20.72-37.71-31.3-56.44
		c-1.09-1.93-2.11-3.91-2.85-6.01c-1.29-3.66-0.79-6.59,3.45-7.86c5.12-0.25,9.81,1.93,14.78,2.56c11.4,2.61,22.58,6.05,33.96,8.71
		c4.2,0.98,7.93,2.46,8.35,7.16c1.12,12.4,5.44,24.13,7.28,36.36C215.55,551.6,216.59,554.24,214.57,556.63z"/>
	<path class="st9" d="M153.46,261.24c-7.23,6.24-14.53,4.26-23.18,6.49c-2.63,0.07-7.18,3-9.74,3.62c-1.27,0.27-2.54,0.59-3.83,0.87
		c-1.2,0.16-2.38,0.13-3.36-0.64c-0.23-0.19-0.4-0.44-0.55-0.7c-13.49-24.37-26.97-48.75-40.54-73.07
		c-0.01-0.01-0.01-0.03-0.03-0.04c-0.9-1.55-0.24-3.51,1.48-3.96c11.85-3.09,23.71-6.18,35.55-9.27c0.68-0.17,1.4-0.08,1.99,0.28
		c3.05,1.85,4.13,5.31,5.67,8.19c11.53,21.42,23.6,42.54,35.2,63.91C152.87,258.27,153.66,259.59,153.46,261.24z"/>
	<path class="st4" d="M485.43,415.48c-3.9,23.47-7.8,46.94-11.7,70.42c-1.05,1.67-2.84,2.05-4.52,2.53
		c-11.94,3.38-23.8,7.04-36.05,9.2c-1.99,0.35-3.95,0.73-5.71-0.7c-2.73-7.42,0.91-14.39,2.1-21.35
		c3.04-17.87,5.82-35.81,9.63-53.56c0.65-3.04,0.79-6.24,4.14-7.81c13.1-2.03,26.22-0.55,39.33-0.31
		C483.78,413.9,484.71,414.6,485.43,415.48z"/>
	<path class="st10" d="M467.7,570.21c0,2.41,0,4.82,0,8.08c-11.05,2.67-22.08,5.33-33.11,7.99c-4.66,1.36-5.63-2.68-7.02-5.28
		c-10.27-19.21-21.16-38.07-31.44-57.27c-1.58-2.94-3.45-5.71-4.94-8.69c-1.29-2.59-2.71-5.21-0.98-8.19
		c11.11-6.09,23.11-8.84,35.64-9.67c6.01,6.64,9.22,14.98,13.55,22.63C448.89,536.58,457.83,553.66,467.7,570.21z"/>
	<path class="st4" d="M165.19,498.18c-4.93-0.91-9.86-1.81-14.79-2.72c-6.15,0.84-12.01-0.38-17.72-2.58
		c-3.46-1.7-8.01-0.72-10.71-4.3c-1.74-10.01-3.54-20.01-5.19-30.03c-2.23-13.52-4.33-27.07-6.49-40.6
		c-1.64-3.83,0.62-5.11,3.78-5.64c3.63-0.62,7.29-0.29,10.94-0.21c8.76,0.25,17.59-1.33,26.26,1.07c2.77,2.06,3.15,5.19,3.58,8.24
		c3.17,22.52,7.11,44.92,11.22,67.29C166.65,491.9,167.73,495.23,165.19,498.18z"/>
	<path class="st11" d="M382.67,224.56c-1.8-1.32-4.3-2.24-5.29-4.01c-15.85-28.24-31.55-56.55-47.11-84.95
		c-1.42-2.59-1.62-5.85-2.38-8.8c0.89,0.15,1.78,0.3,2.67,0.44c0.56,0.34,1.03,0.85,1.74,0.93c0.36-0.09,0.66,0,0.91,0.27
		c1.18,1.05,2.92,0.09,4.09,1.15c3.9,0.53,7.91,0.66,11.69,1.66c15.9,4.2,31.73,8.65,48.88,13.37c-1.53,10.17-3.05,20.26-4.58,30.36
		c1.94,6.24-0.99,11.99-2.01,17.89c-0.51,2.98-1.51,5.91-2,8.93c-0.33,1.55-0.93,3.05-1.1,4.64c-0.11,0.87-0.29,1.73-0.53,2.57
		c-0.41,1.29-0.92,2.56-1.31,3.86c-0.14,0.5-0.33,0.98-0.52,1.46c-0.48,1.19-0.59,2.45-0.66,3.71c-0.05,0.78-0.21,1.55-0.44,2.3
		c-0.45,1.24-0.81,2.51-1.48,3.67C383.06,224.19,382.87,224.37,382.67,224.56z"/>
	<path class="st4" d="M475.92,269.89c10.76,2.77,21.53,5.55,32.29,8.32c-2.96,19.03-5.98,38.05-8.84,57.1
		c-0.58,3.89-0.56,7.87-0.81,11.81c-6.24,4.19-13.22,1.47-19.83,2.15c-8.27-0.32-16.63,1.23-24.8-1.13
		c-2.87-3.35-1.59-7.31-0.83-10.72c4.67-20.94,7.26-42.24,11.27-63.29c0.37-1.95,0.51-3.96,1.73-5.66
		C469.88,265.45,472.73,268.83,475.92,269.89z"/>
	<path class="st4" d="M119.65,269.83c2.65-0.42,5.29-0.84,7.94-1.26c3.08,3.54,3.97,7.95,4.44,12.35c1.89,17.7,5.56,35.1,8.62,52.61
		c0.85,4.85,2.39,10.12-1.64,14.59c-13.16,2.06-26.36,1-39.55,0.56c-0.87-0.03-1.6-0.7-2.22-1.35c-2.48-15.26-4.98-30.52-7.42-45.79
		c-1.25-7.84-2.4-15.7-3.59-23.55c8.93-2.24,17.86-4.47,26.8-6.71c1.34-0.08,2.68-0.17,4.02-0.25
		C117.81,270.38,119,270.7,119.65,269.83z"/>
	<path class="st12" d="M453.66,346.9c8.32,0.15,16.64,0.29,24.96,0.44c6.21,5.4,8.22,13.42,12.43,20.07
		c7.19,11.35,11.76,24.28,20.68,34.61c-0.43,4.01-0.86,8.02-1.29,12.03c-14.08,1.46-28.18,0.19-42.25,0.69
		c-5.33-5.92-8.22-12.92-11.85-19.44c-7.32-13.14-14.66-26.28-21.73-39.56c-1.56-2.93-4.16-6.15-0.46-9.5
		C440.7,344.96,447.25,344.01,453.66,346.9z"/>
	<path class="st13" d="M390.55,507.72c3.18,6.75,6.08,13.65,9.61,20.21c9.13,16.94,18.47,33.78,27.93,50.54
		c1.64,2.9,4.31,5.22,6.51,7.81c-19.32,5.26-38.64,10.54-57.98,15.73c-1.17,0.31-2.54-0.09-4.18-0.18c-0.22-2.2-0.41-4.12-0.6-6.03
		c0.88-3.77,2-7.5,2.58-11.32c1.42-9.29,2.59-18.62,3.86-27.94c-1.3-1.46-1.47-3.24-1.15-5.01c2.38-13.3,3.5-26.84,7.38-39.86
		C385.35,508.83,385.84,504.89,390.55,507.72z"/>
	<path class="st14" d="M433.24,347.35c4.04,8.07,7.89,16.24,12.16,24.2c7.53,14.04,15.32,27.95,23.33,42.51c13.84,0,27.78,0,41.72,0
		c-5.72,0.39-11.44,0.8-17.17,1.15c-2.61,0.16-5.23,0.19-7.84,0.28c-14.42,0.02-28.83,0.04-43.25,0.05
		c-2.51,1.74-5.38,1.86-8.29,1.86c-6.87,0.01-13.74,0.04-20.61-0.01c-11.8-0.09-13.44-2.16-11.48-14.05
		c0.69-4.17,1.66-8.29,2.81-12.31c3.06-10.73,3.58-21.85,5.46-32.75C412.35,345.01,420.72,341.16,433.24,347.35z"/>
	<path class="st15" d="M467.7,570.21c-5.09-7.7-10.59-15.16-15.19-23.15c-8.3-14.41-16.08-29.12-24-43.75
		c-0.94-1.73-1.4-3.71-2.09-5.57c0.13-0.88,0.45-1.47,1.49-1.01c12.71-3.1,25.41-6.22,38.12-9.28c2.54-0.61,5.13-1.04,7.7-1.55
		c2.62,0,5.24,0,8.68,0c-0.24,2.92-0.27,5.25-0.65,7.52c-2.35,14.32-4.68,28.65-7.22,42.94c-1.15,6.47-2.79,12.86-4.2,19.28
		c-0.79,1.33-0.15,2.97-0.95,4.3c-0.13,1.24-0.27,2.48-0.4,3.72c-0.87,1.15,0.1,2.81-1.09,3.87
		C467.84,568.42,467.77,569.31,467.7,570.21z"/>
	<path class="st16" d="M153.18,260.55c-6.25-10.66-12.66-21.22-18.7-32c-8.23-14.67-16.18-29.5-24.25-44.27l0,0.05
		c0.45-0.33,0.91-0.65,1.38-0.94c12.26-2.91,24.51-5.83,36.64-8.71c1.37,4.4,2.39,7.67,3.41,10.95c5.11,6.41,4.26,14.43,5.79,21.79
		c0.62,2.96,0.41,6.1,1.25,9.08c1.68,11.88,5.3,23.41,6.44,35.39C166.02,261,161.66,264.18,153.18,260.55z"/>
	<path class="st17" d="M125.02,414.05c-3.66,0.01-7.37-0.34-10.95,0.2c-1.42,0.21-2.53,2.41-3.79,3.7
		c-0.57-1.14-1.14-2.28-1.93-3.85c-8.12,0-16.46,0-25.68,0c-2.79-16.61-5.55-32.94-8.25-49.29c-0.89-5.36-1.6-10.76-2.39-16.14
		c5.55-1.48,11.22-0.36,16.81-0.71c2.64,0.11,3.69,2.1,4.76,4.07c10.06,18.48,20.11,36.96,30.46,55.28
		C125.21,409.33,126.87,411.51,125.02,414.05z"/>
	<path class="st18" d="M519.68,255.22c-0.65,0.88-1.3,1.75-2.73,3.68c-4.1-6.94-7.78-12.86-11.17-18.94
		c-9.59-17.21-19.07-34.48-28.58-51.75c-1.29-2.33-2.26-4.69,1.76-5.33c16.74,4.07,33.48,8.13,51.41,12.49
		c-3.24,17.88-6.31,34.86-9.38,51.85c-0.7,1.35-0.13,2.97-0.89,4.31C519.96,252.76,519.82,253.99,519.68,255.22z"/>
	<path class="st19" d="M133.03,491.48c5.79,1.33,11.58,2.66,17.36,3.99c-3.87,1.89-2.54,4.59-1.09,7.25
		c8.71,15.97,17.46,31.91,26.18,47.88c7.22,13.24,14.45,26.48,21.57,39.78c0.8,1.5,0.92,3.36,1.36,5.06
		c-0.92-0.03-1.83-0.06-2.75-0.09c-1.26-0.78-2.89-0.02-4.11-0.99c-0.46,0.06-0.86-0.05-1.23-0.33c-1.14-0.86-2.8,0.09-3.83-1.12
		l-0.07-0.03c-0.88-0.77-2.1-0.62-3.07-1.13c-0.79-0.13-1.57-0.25-2.36-0.38c-0.91-0.55-2.03-0.47-2.96-0.95
		c-0.4,0.05-0.72-0.08-0.97-0.4c-5.33-6.11-8.21-13.7-12.08-20.64c-12.36-22.13-24.57-44.35-36.75-66.58
		c-1.75-3.2-4.27-6.47-2-10.54C128.37,490.47,130.62,490.33,133.03,491.48z"/>
	<path class="st20" d="M199.89,153.71c5.08,8.47,10.37,16.83,15.19,25.44c9.93,17.73,19.53,35.64,29.52,53.34
		c1.26,2.23,4,3.62,6.05,5.4c-0.23,2.32-2.13,2.71-3.82,2.96c-7.69,1.15-14.91,4.05-22.39,5.94c-8.01,2.02-10.32-0.07-12.11-8.29
		c-2.49-11.44-4.74-22.92-7.33-34.34c-0.1-7.89-2.22-15.49-3.37-23.24c-0.38-2.57-1.01-5.19,0.59-7.62
		C201.45,166.78,200.67,160.25,199.89,153.71z"/>
	<path class="st4" d="M387.63,203.15c1.89-9.39,3.78-18.77,5.67-28.16c8.35,1.58,16.74,3.02,25.05,4.78
		c8.14,1.72,16.22,3.77,24.33,5.68c-1,8.09-2,16.18-3,24.27c0.74,3.18,0.32,5.91-2.94,7.53c-7.68,0.58-14.79-2.09-21.95-4.15
		c-8.88-2.55-18.25-3.11-26.83-6.82C387.1,205.31,387.15,204.25,387.63,203.15z"/>
	<path class="st4" d="M202.23,173.31c1.44,10.39,2.89,20.78,4.33,31.17c-0.72,1.2-1.81,2.05-3.13,2.3
		c-13.7,2.65-26.94,7.19-40.61,9.96c-1.94,0.39-3.95,0.72-5.83-0.37c-1.31-7.68-2.61-15.37-3.94-23.05
		c-0.44-2.56-0.92-5.12-1.39-7.67C168.52,181.54,185.37,177.42,202.23,173.31z"/>
	<path class="st21" d="M133.03,491.48c-2.19,0.47-4.37,0.94-7.79,1.67c5,9.48,9.26,17.92,13.84,26.19
		c12.01,21.7,24.17,43.31,36.18,65c0.94,1.7,1.21,3.77,1.79,5.68c-6.83-1.62-13.66-3.24-20.49-4.86c1.05-2.74,0.25-5.16-1.14-7.59
		c-11.75-20.62-22.92-41.56-34.52-62.27c-1.62-2.89-2.42-6.86-6.63-7.64c-1.15-6.58-2.3-13.15-3.71-21.25
		c5.1,0.97,8.25,1.57,11.39,2.17C125.65,489.55,129.34,490.51,133.03,491.48z"/>
	<path class="st22" d="M114.28,507.66c0.28-0.8,0.55-1.59,1.29-3.73c2.58,3.85,4.79,6.71,6.52,9.83
		c11.9,21.42,23.75,42.86,35.46,64.39c1.19,2.19,4.78,5.48-0.99,7.01c-0.37,0.04-0.67-0.08-0.9-0.37c-0.79-0.7-1.98-0.44-2.78-1.13
		c-8.56-1.84-17.12-3.68-26.27-5.65c-3.68-21.3-7.34-42.48-11-63.66c-0.99-1.21-0.18-2.86-1.02-4.11
		C114.49,509.38,114.39,508.52,114.28,507.66z"/>
	<path class="st23" d="M511.73,402.02c-2.09-1.67-4.95-2.91-6.16-5.08c-9.17-16.43-18.01-33.05-26.95-49.61
		c6.65-0.07,13.29-0.15,19.94-0.22c6.99,0,13.98,0,22.63,0c-2.45,14.68-4.69,28.17-6.94,41.66c-0.68,1.16,0.21,2.75-1.03,3.75
		l-0.07,0.12c-1.22,1.63,0.15,3.82-1.17,5.43C511.9,399.4,511.82,400.71,511.73,402.02z"/>
	<path class="st24" d="M90.4,348.84c-6.12-0.05-12.25-0.1-18.37-0.16c8.4-0.45,16.8-0.91,25.2-1.36
		c14.23-0.07,28.45-0.15,42.68-0.22c-0.02,0.41-0.04,0.81-0.06,1.22c-1.37,1.93-3.52,1.92-5.54,2.23
		c-11.88,0.31-23.76,0.09-35.65,0.15C95.75,350.73,92.98,350.26,90.4,348.84z"/>
	<path class="st12" d="M511.98,398.09c0.39-1.81,0.78-3.62,1.17-5.43C512.76,394.47,512.37,396.28,511.98,398.09z"/>
	<path class="st6" d="M520.11,251.54c0.3-1.44,0.6-2.87,0.89-4.31C520.7,248.66,520.4,250.1,520.11,251.54z"/>
	<path class="st12" d="M513.22,392.53c0.34-1.25,0.69-2.5,1.03-3.75C513.91,390.03,513.57,391.28,513.22,392.53z"/>
	<path class="st21" d="M191.55,594.35c1.37,0.33,2.74,0.66,4.11,0.99C194.29,595.01,192.92,594.68,191.55,594.35z"/>
	<path class="st3" d="M337.3,129.6c-1.36-0.38-2.73-0.77-4.09-1.15C334.57,128.83,335.94,129.22,337.3,129.6z"/>
	<path class="st5" d="M279.73,123.23c-1.35,0.34-2.69,0.67-4.04,1.01C277.04,123.91,278.39,123.57,279.73,123.23z"/>
	<path class="st19" d="M114.6,510.24c0.34,1.37,0.68,2.74,1.02,4.11C115.28,512.98,114.94,511.61,114.6,510.24z"/>
	<path class="st10" d="M469.4,559.94c0.32-1.43,0.63-2.87,0.95-4.3C470.03,557.07,469.72,558.51,469.4,559.94z"/>
	<path class="st10" d="M467.91,567.53c0.36-1.29,0.73-2.58,1.09-3.87C468.64,564.95,468.27,566.24,467.91,567.53z"/>
	<path class="st21" d="M186.49,592.9c1.28,0.37,2.56,0.75,3.83,1.12C189.04,593.65,187.77,593.28,186.49,592.9z"/>
	<path class="st7" d="M238.37,133.91c-0.91,0.33-1.82,0.67-2.72,1C236.56,134.57,237.47,134.24,238.37,133.91z"/>
	<path class="st21" d="M152.89,583.66c0.93,0.38,1.85,0.75,2.78,1.13C154.74,584.41,153.81,584.03,152.89,583.66z"/>
	<path class="st21" d="M178.02,590.41c0.99,0.32,1.97,0.63,2.96,0.95C180,591.05,179.01,590.73,178.02,590.41z"/>
	<path class="st21" d="M183.35,591.74c1.02,0.38,2.05,0.75,3.07,1.13C185.39,592.5,184.37,592.12,183.35,591.74z"/>
	<path class="st9" d="M111.61,183.4c-0.46,0.31-0.92,0.62-1.38,0.94C110.69,184.03,111.15,183.72,111.61,183.4z"/>
	<path class="st3" d="M332.29,128.17c-0.58-0.31-1.16-0.62-1.74-0.93C331.14,127.55,331.72,127.86,332.29,128.17z"/>
	<path class="st5" d="M286.5,121.86c-0.53,0.35-1.05,0.7-1.58,1.05C285.45,122.56,285.98,122.21,286.5,121.86z"/>
	<path class="st25" d="M156.99,216.37c16.52-3.97,33.05-7.93,49.57-11.9c3.09,13.39,6.17,26.77,9.66,41.91
		c11.19-2.76,22.81-5.63,34.43-8.5c4.24-0.93,8.49-1.79,12.7-2.81c9.02-2.18,18.02-4.43,27.03-6.65
		c10.79-3.45,20.35,3.13,30.65,3.86c4.09,0.29,8.09,1.79,12.14,2.74c11.08,2.78,22.17,5.57,33.25,8.35
		c3.95,0.99,7.91,1.96,12.71,3.15c1.31-8.11,2.42-15.04,3.54-21.96l-0.05,0c1.12-1.16,0.05-3,1.28-4.12
		c0.05-0.72,0.1-1.44,0.16-2.16c0.8-1.39-0.03-3.23,1.26-4.48l-0.04,0.07c0.97-1.19,0.39-2.69,0.83-3.99c0.2-0.8,0.39-1.6,0.59-2.4
		c0.27-0.73,0.38-1.57,1.29-1.86c16.44,3.72,32.88,7.43,49.32,11.15c2.57,5.53,0.12,10.78-0.86,16.12c-1.48,8.02-3.54,16-1.92,24.88
		c8.82,1.52,16.91,5.19,25.44,7.51c2.52,0.69,5.3,0.98,7,3.42c-2.5,15.23-4.95,30.46-7.52,45.68c-1.84,10.86-3.84,21.69-5.77,32.54
		c-6.81,0.15-13.61,0.3-20.42,0.45c-5.96,0-11.93,0-18.6,0c-4.13,22.33-8.21,44.42-12.6,68.19c14.12,0,27.14,0,40.15,0
		c-4.76,27.07-9.51,54.13-14.27,81.2c-0.5,0.34-0.99,0.67-1.49,1.01c-11.96,3.33-23.92,6.65-35.87,9.98c-1.08,0-2.15,0-3.98,0
		c-2.78,16.36-5.54,32.59-8.3,48.83c-26.22,6.43-52.43,12.87-78.66,19.24c-1.87,0.45-4,0.84-5.8,0.4
		c-20.85-5.08-41.66-10.34-62.48-15.52c-5.58-1.39-11.18-2.69-16.77-4.03c-2.48-11.4-5.07-22.77-7.37-34.21
		c-0.81-4.05-0.9-8.24-1.32-12.4c-0.73-0.64-1.3-1.57-2.05-1.75c-10.64-2.55-21.31-4.95-31.94-7.53c-2.31-0.56-4.48-1.7-6.71-2.57
		c-1.67-10.47-3.37-20.95-5.01-31.43c-2.74-17.47-5.43-34.95-8.15-52.42c5.06-4.02,10.95-1.78,16.48-2.21
		c5.65-0.45,11.44,0.88,17.83-1.22c-2.52-19.96-4.53-39.84-10.26-59.39c-8.93-1.37-17.43-2.4-26.07-2.34
		c-3.44,0.02-7.17,0.84-10.1-2l0-0.07c-2.93-18.98-5.85-37.96-8.81-56.93c-1.12-7.21-2.34-14.4-3.52-21.6
		c8.53-2.67,17.06-5.34,25.59-8.01c3.25-0.18,6.49-0.35,11.28-0.62C161.86,244.77,159.42,230.57,156.99,216.37z"/>
	<path class="st26" d="M466.95,268.68c-7.12-2.16-14.2-4.48-21.37-6.43c-4.19-1.14-8.53-1.69-14.37-2.81
		c1.05-8.77,2-17.63,3.22-26.46c0.75-5.44,1.9-10.83,2.88-16.24c0.79-2.35,1.58-4.7,2.37-7.04c3.06,3.74,6.74,7.14,9.06,11.3
		c8.56,15.36,16.66,30.98,24.99,46.48c0.5,0.93,1.46,1.61,2.2,2.41C472.93,269.49,469.94,269.08,466.95,268.68z"/>
	<path class="st1" d="M119.65,269.83c-0.87,0.4-1.74,0.8-2.6,1.19C117.92,270.62,118.78,270.22,119.65,269.83z"/>
	<path class="st27" d="M169.05,414.12c-5.68,0.07-11.35,0.14-17.03,0.21c-9-0.09-18-0.19-27-0.28
		c-5.75-10.87-11.49-21.75-17.26-32.61c-5.77-10.88-11.57-21.74-17.36-32.6c15.1-0.07,30.2-0.14,45.3-0.21
		c6.59,8.38,10.57,18.28,15.99,27.35c5.54,9.28,10.42,18.95,15.63,28.42C168.91,407.3,171.69,410.32,169.05,414.12z"/>
	<path class="st3" d="M383.9,220.43c-0.43,1.37-0.86,2.75-1.28,4.12C383.05,223.18,383.47,221.81,383.9,220.43z"/>
	<path class="st3" d="M385.32,213.8c-0.42,1.49-0.84,2.99-1.26,4.48C384.48,216.78,384.9,215.29,385.32,213.8z"/>
	<path class="st3" d="M386.11,209.88c-0.28,1.33-0.55,2.66-0.83,3.99C385.55,212.54,385.83,211.21,386.11,209.88z"/>
	<path class="st3" d="M387.98,205.61c-0.43,0.62-0.86,1.24-1.29,1.86c0.31-1.44,0.62-2.88,0.94-4.33
		C387.75,203.97,387.86,204.79,387.98,205.61z"/>
	<path class="st28" d="M169.05,414.12c-4.42-9.11-8.67-18.3-13.28-27.31c-6.55-12.8-13.37-25.46-20.07-38.18
		c1.41-0.48,2.81-0.97,4.22-1.45c12.35,0,24.71,0,38.34,0c3.85,22.79,7.48,44.31,11.31,66.95
		C182.19,414.12,175.62,414.12,169.05,414.12z"/>
	<path class="st29" d="M270.71,316.62c5.27-0.38,10.55-0.75,15.82-1.13c3.18,1.19,6.66-0.38,10.54,1.35
		c4,4.84,6.56,11.32,9.88,17.28c18.07,32.43,36.07,64.9,53.99,97.41c1.34,2.43,3.49,4.84,1.63,7.99c-2.68,2.63-5.37,5.26-8.05,7.89
		c-3.26-0.77-4.14-3.71-5.56-6.14c-9.12-15.61-17.07-31.87-26.55-47.27c0-6.83,0-13.65,0-20.86c-4.12-0.25-7.37-0.44-10.62-0.64
		c-6.33-5.06-8.3-12.91-12.17-19.5c-6.49-11.06-12.72-22.29-17.98-32.7C277.75,317.13,273.48,319.45,270.71,316.62z"/>
	<path class="st30" d="M362.56,439.51c-6.04-11.57-11.89-23.25-18.15-34.69c-10.11-18.47-20.5-36.78-30.74-55.17
		c-6.03-10.83-11.99-21.7-17.88-32.35c-3.32-0.65-6.29-1.23-9.26-1.81c4.89,0,9.78,0,14.68,0c2.53,1.06,5.31-0.14,8.15,0.91
		c5.12,5.39,7.91,12.54,11.53,19.09c16.44,29.73,32.78,59.52,49.47,89.1c0.96,1.7,2.32,3.35,1.59,5.56l0.03-0.04
		c-0.6,0.35-1.02,0.87-1.4,1.43C367.91,434.2,365.24,436.85,362.56,439.51z"/>
	<path class="st31" d="M371.94,430.15c-9.29-16.32-18.69-32.57-27.83-48.97c-11.83-21.24-23.46-42.59-35.07-63.72
		c-2.86-0.72-5.35-1.35-7.84-1.98c4.89,0,9.79,0,14.68,0c2.08,1,4.43-0.1,7.32,1.18c18.77,32.58,36.36,66.63,55.95,99.56
		c-0.18,2.43,0.55,4.93-0.53,7.3C376.4,425.73,374.17,427.94,371.94,430.15z"/>
	<path class="st32" d="M378.44,415.41c-1.55-1.39-3.61-2.49-4.57-4.21c-17.38-31.2-34.62-62.47-51.95-93.84
		c-1.93-0.6-3.98-1.23-6.03-1.87c4,0,8.01,0,12.01,0c2.08,1,4.42-0.1,7.01,1.03c5,6.26,8.34,14.05,12.52,21.31
		c10.52,18.24,19.92,37.11,30.99,55.04c0.47,0.75,0.71,1.62,0.76,2.53c-0.01,5.98,0.01,11.96-0.01,17.93
		C379.22,414.13,378.98,414.82,378.44,415.41z"/>
	<path class="st33" d="M293.14,372.5c-8.45,0-16.89,0-25.34,0c-6.78-11.1-13.69-22.12-18.56-34.26c4.08-4.09,8.16-8.18,12.23-12.27
		c0.18-0.53,0.53-0.9,1.06-1.09l0.21-0.24c0.23-0.53,0.59-0.92,1.12-1.15l0.19-0.19c0.23-0.53,0.62-0.91,1.15-1.15l0.14-0.14
		c2.92-0.5,3.76,1.85,4.8,3.69c7.39,13.07,14.87,26.1,21.72,39.46C292.99,367.39,295.06,369.66,293.14,372.5z"/>
	<path class="st34" d="M293.14,372.5c-9.27-16.82-18.54-33.64-27.8-50.46c1.79-1.81,3.58-3.61,5.37-5.42c3.51,0,7.02,0,10.86,0
		c10.13,18.72,20.18,37.3,30.23,55.88C305.57,372.5,299.35,372.5,293.14,372.5z"/>
	<path class="st35" d="M378.47,394.01c-2.41-3.09-5.28-5.93-7.17-9.32c-12.48-22.39-24.74-44.9-37-67.22
		c-2.33-0.72-4.37-1.35-6.42-1.98c4.45,0,8.9,0,13.35,0c2.08,0.99,4.44-0.1,7.33,1.18c4.76,7.68,9.22,16.35,13.9,24.88
		c5.54,10.09,11.62,19.89,16.71,30.24C378.74,379.2,380.09,386.65,378.47,394.01z"/>
	<path class="st36" d="M322.41,393.99c4.47,6.67,9.26,13.16,13.35,20.06c6.5,10.97,12.53,22.22,18.76,33.35
		c-3.56,3.56-7.12,7.12-10.67,10.69c-6.04-3.77-7.55-10.71-10.99-16.23c-3.72-5.98-7.17-12.19-10.41-18.48
		C322.43,413.58,322.42,403.79,322.41,393.99z"/>
	<path class="st37" d="M378.46,369.99c-4.32-6.47-8.99-12.74-12.89-19.46c-6.33-10.88-12.16-22.05-18.24-33.17
		c-2-0.62-4.04-1.25-6.09-1.88c4.89,0,9.78,0,14.67-0.01c2.52,1.04,5.28-0.13,7.81,0.84C376.78,331.98,382.58,349.62,378.46,369.99z
		"/>
	<path class="st38" d="M322.44,423.37c2.63,3.46,5.62,6.71,7.83,10.43c4.74,7.97,9.07,16.18,13.57,24.29
		c-7.02,6.69-14.05,13.38-21.4,20.38C322.44,460.2,322.44,441.79,322.44,423.37z"/>
	<path class="st39" d="M249.23,338.24c6.19,11.42,12.37,22.84,18.56,34.26c-5.34,0-10.67,0-16.01-0.01
		c-4.17-8.1-10.47-15.12-12.26-24.41C242.76,344.8,246,341.52,249.23,338.24z"/>
	<path class="st40" d="M378.46,369.99c0-8.89,0-17.77,0-25.62c-5.38-9.52-10.28-18.18-15.31-27.06c-2.24-0.57-4.74-1.2-7.24-1.83
		c7.68,0,15.37,0,23.57,0c0,33.1,0,65.79,0,98.47c-0.28,0.01-0.57,0.02-0.85,0.02c-0.05-6.66-0.11-13.31-0.16-19.97
		C378.47,386.01,378.46,378,378.46,369.99z"/>
	<path class="st41" d="M239.53,348.08c4.09,8.14,8.17,16.27,12.26,24.41c-4.89,0-9.78,0-14.67,0c-3.77-3.86-5.62-8.93-8.49-13.37
		C232.26,355.45,235.89,351.76,239.53,348.08z"/>
	<path class="st42" d="M228.63,359.13c2.83,4.46,5.66,8.91,8.49,13.37c-6.86,0-13.72,0-20.58,0c-0.41-0.4-0.83-0.81-1.24-1.21
		C219.74,367.23,224.18,363.18,228.63,359.13z"/>
	<path class="st35" d="M378.63,413.98c0.28,0.03,0.57,0.02,0.85-0.02c-0.29,3.19-0.57,6.38-0.86,9.57
		c-0.06-2.71-0.12-5.41-0.18-8.12C378.51,414.93,378.57,414.46,378.63,413.98z"/>
	<path class="st34" d="M262.53,324.89c-0.35,0.36-0.71,0.72-1.06,1.09C261.82,325.61,262.18,325.25,262.53,324.89z"/>
	<path class="st34" d="M263.86,323.5c-0.37,0.38-0.75,0.76-1.12,1.15C263.11,324.27,263.49,323.89,263.86,323.5z"/>
	<path class="st31" d="M370.58,431.54c0.47-0.48,0.93-0.96,1.4-1.43C371.51,430.59,371.05,431.06,370.58,431.54z"/>
	<path class="st34" d="M265.19,322.17c-0.38,0.38-0.76,0.76-1.15,1.15C264.43,322.93,264.81,322.55,265.19,322.17z"/>
</g>
</svg>
